<svg width="27" height="27" viewBox="0 0 27 27" fill="none" xmlns="http://www.w3.org/2000/svg">
<rect width="27" height="27" rx="5" transform="matrix(-1 0 0 1 27 0)" fill="black"/>
<path d="M14.291 4.00781H12.709C12.5684 4.00781 12.498 4.07812 12.498 4.21875V22.7812C12.498 22.9219 12.5684 22.9922 12.709 22.9922H14.291C14.4316 22.9922 14.502 22.9219 14.502 22.7812V4.21875C14.502 4.07812 14.4316 4.00781 14.291 4.00781Z" fill="white"/>
<path d="M22.3594 12.498H4.64062C4.5 12.498 4.42969 12.5684 4.42969 12.709V14.291C4.42969 14.4316 4.5 14.502 4.64062 14.502H22.3594C22.5 14.502 22.5703 14.4316 22.5703 14.291V12.709C22.5703 12.5684 22.5 12.498 22.3594 12.498Z" fill="white"/>
</svg>
