<svg width="22" height="22" viewBox="0 0 22 22" fill="none" xmlns="http://www.w3.org/2000/svg">
<path d="M19.8672 17.0072C19.2779 16.4819 18.762 15.8796 18.3333 15.2167C17.8654 14.3016 17.5849 13.3022 17.5083 12.2772V9.25833C17.5124 7.64842 16.9284 6.09245 15.8661 4.88276C14.8038 3.67306 13.3364 2.89291 11.7394 2.68888V1.90055C11.7394 1.68418 11.6535 1.47667 11.5005 1.32367C11.3475 1.17067 11.14 1.08472 10.9236 1.08472C10.7072 1.08472 10.4997 1.17067 10.3467 1.32367C10.1937 1.47667 10.1078 1.68418 10.1078 1.90055V2.70111C8.52516 2.91984 7.07543 3.70471 6.0271 4.91034C4.97878 6.11597 4.40289 7.66067 4.40611 9.25833V12.2772C4.32958 13.3022 4.04909 14.3016 3.58111 15.2167C3.15999 15.8781 2.65234 16.4803 2.07167 17.0072C2.00648 17.0645 1.95424 17.135 1.91841 17.214C1.88259 17.293 1.864 17.3788 1.86389 17.4656V18.2967C1.86389 18.4587 1.92828 18.6142 2.04288 18.7288C2.15749 18.8434 2.31293 18.9078 2.475 18.9078H19.4639C19.626 18.9078 19.7814 18.8434 19.896 18.7288C20.0106 18.6142 20.075 18.4587 20.075 18.2967V17.4656C20.0749 17.3788 20.0563 17.293 20.0205 17.214C19.9847 17.135 19.9324 17.0645 19.8672 17.0072ZM3.135 17.6856C3.70359 17.1363 4.2042 16.5208 4.62611 15.8522C5.2156 14.747 5.55954 13.5276 5.63445 12.2772V9.25833C5.61021 8.54213 5.73035 7.82837 5.9877 7.15957C6.24505 6.49076 6.63435 5.88059 7.13243 5.36537C7.63051 4.85015 8.22717 4.44043 8.88689 4.16061C9.54661 3.88078 10.2559 3.73658 10.9725 3.73658C11.6891 3.73658 12.3984 3.88078 13.0581 4.16061C13.7178 4.44043 14.3145 4.85015 14.8126 5.36537C15.3107 5.88059 15.7 6.49076 15.9573 7.15957C16.2147 7.82837 16.3348 8.54213 16.3106 9.25833V12.2772C16.3855 13.5276 16.7294 14.747 17.3189 15.8522C17.7408 16.5208 18.2414 17.1363 18.81 17.6856H3.135Z" fill="black"/>
<path d="M11 20.9489C11.3849 20.94 11.7543 20.7953 12.0429 20.5403C12.3314 20.2853 12.5205 19.9365 12.5766 19.5555H9.36218C9.41992 19.9468 9.61782 20.3039 9.91909 20.5602C10.2204 20.8165 10.6045 20.9546 11 20.9489Z" fill="black"/>
<ellipse cx="16.9583" cy="6.875" rx="4.125" ry="4.125" fill="#FF0000"/>
</svg>
