<svg width="26" height="26" viewBox="0 0 26 26" fill="none" xmlns="http://www.w3.org/2000/svg">
<path d="M24.1078 9.16499C23.6764 9.38473 23.2172 9.54507 22.7428 9.64165C22.9824 10.3764 23.1067 11.1438 23.1111 11.9167C23.0947 13.0253 22.848 14.1185 22.3867 15.1268C21.9255 16.135 21.2597 17.0365 20.4317 17.7739C20.3591 17.8412 20.3011 17.9228 20.2613 18.0135C20.2216 18.1042 20.2009 18.2021 20.2006 18.3011V22.1578L17.0372 20.1428C16.949 20.087 16.8497 20.051 16.7462 20.0373C16.6427 20.0236 16.5375 20.0325 16.4378 20.0633C15.3247 20.409 14.1656 20.5844 13 20.5833C7.42446 20.5833 2.8889 16.6978 2.8889 11.9167C2.8889 7.13554 7.42446 3.24999 13 3.24999C14.1126 3.24985 15.2194 3.41039 16.2861 3.72665C16.3312 3.24716 16.4405 2.7759 16.6111 2.32554C15.4378 1.98333 14.2222 1.80827 13 1.80554C6.63001 1.80554 1.44446 6.3411 1.44446 11.9167C1.44446 17.4922 6.63001 22.0278 13 22.0278C14.1918 22.0264 15.3777 21.8611 16.5245 21.5367L20.5183 24.0789C20.6274 24.1488 20.7532 24.1882 20.8827 24.1928C21.0121 24.1974 21.1405 24.1671 21.2542 24.105C21.3679 24.043 21.4629 23.9515 21.5291 23.8402C21.5953 23.7289 21.6304 23.6018 21.6306 23.4722V18.6117C22.5342 17.7448 23.2554 16.7058 23.7515 15.5561C24.2476 14.4063 24.5087 13.1689 24.5195 11.9167C24.5274 10.9835 24.3885 10.0549 24.1078 9.16499Z" fill="black"/>
<path d="M7.94439 11.1945C7.75284 11.1945 7.56914 11.2705 7.4337 11.406C7.29826 11.5414 7.22217 11.7251 7.22217 11.9167C7.22217 12.1082 7.29826 12.2919 7.4337 12.4274C7.56914 12.5628 7.75284 12.6389 7.94439 12.6389H18.0555C18.247 12.6389 18.4307 12.5628 18.5662 12.4274C18.7016 12.2919 18.7777 12.1082 18.7777 11.9167C18.7777 11.7251 18.7016 11.5414 18.5662 11.406C18.4307 11.2705 18.247 11.1945 18.0555 11.1945H7.94439Z" fill="black"/>
<path d="M10.2917 14.8055C10.1001 14.8055 9.91644 14.8816 9.78099 15.0171C9.64555 15.1525 9.56946 15.3362 9.56946 15.5278C9.56946 15.7193 9.64555 15.903 9.78099 16.0385C9.91644 16.1739 10.1001 16.25 10.2917 16.25H15.7083C15.8999 16.25 16.0836 16.1739 16.219 16.0385C16.3545 15.903 16.4306 15.7193 16.4306 15.5278C16.4306 15.3362 16.3545 15.1525 16.219 15.0171C16.0836 14.8816 15.8999 14.8055 15.7083 14.8055H10.2917Z" fill="black"/>
<path d="M7.42444 8.30554C7.42444 8.49708 7.50053 8.68078 7.63597 8.81622C7.77142 8.95167 7.95512 9.02776 8.14666 9.02776H17.8533C17.9736 9.02558 18.0914 8.99339 18.1961 8.93411C18.3008 8.87483 18.389 8.79034 18.4528 8.68831C18.028 8.37617 17.651 8.00395 17.3333 7.58331H8.14666C7.95512 7.58331 7.77142 7.6594 7.63597 7.79485C7.50053 7.93029 7.42444 8.11399 7.42444 8.30554Z" fill="black"/>
<path d="M21.6667 7.94445C23.661 7.94445 25.2778 6.3277 25.2778 4.33334C25.2778 2.33898 23.661 0.722229 21.6667 0.722229C19.6723 0.722229 18.0555 2.33898 18.0555 4.33334C18.0555 6.3277 19.6723 7.94445 21.6667 7.94445Z" fill="black"/>
</svg>
