<svg width="27" height="27" viewBox="0 0 27 27" fill="none" xmlns="http://www.w3.org/2000/svg">
<path d="M23.8333 0.583344H3.16659C1.74188 0.583344 0.583252 1.74197 0.583252 3.16668V26.4167L5.74992 21.25H23.8333C25.258 21.25 26.4166 20.0914 26.4166 18.6667V3.16668C26.4166 1.74197 25.258 0.583344 23.8333 0.583344ZM9.62492 13.5C9.28559 13.4999 8.94959 13.433 8.63612 13.3031C8.32265 13.1731 8.03784 12.9827 7.79796 12.7427C7.55807 12.5027 7.36781 12.2178 7.23803 11.9043C7.10825 11.5907 7.0415 11.2547 7.04159 10.9154C7.04167 10.5761 7.10859 10.2401 7.23853 9.92659C7.36846 9.61312 7.55887 9.32831 7.79887 9.08843C8.03888 8.84854 8.32378 8.65828 8.63732 8.5285C8.95085 8.39872 9.28688 8.33197 9.62621 8.33205C10.3115 8.33222 10.9687 8.60463 11.4532 9.08934C11.9376 9.57405 12.2097 10.2314 12.2095 10.9167C12.2094 11.602 11.937 12.2592 11.4523 12.7436C10.9675 13.2281 10.3102 13.5002 9.62492 13.5ZM17.3749 13.5C17.0356 13.4999 16.6996 13.433 16.3861 13.3031C16.0727 13.1731 15.7878 12.9827 15.548 12.7427C15.3081 12.5027 15.1178 12.2178 14.988 11.9043C14.8583 11.5907 14.7915 11.2547 14.7916 10.9154C14.7917 10.5761 14.8586 10.2401 14.9885 9.92659C15.1185 9.61312 15.3089 9.32831 15.5489 9.08843C15.7889 8.84854 16.0738 8.65828 16.3873 8.5285C16.7009 8.39872 17.0369 8.33197 17.3762 8.33205C18.0615 8.33222 18.7187 8.60463 19.2032 9.08934C19.6876 9.57405 19.9597 10.2314 19.9595 10.9167C19.9594 11.602 19.687 12.2592 19.2023 12.7436C18.7175 13.2281 18.0602 13.5002 17.3749 13.5Z" fill="white"/>
</svg>
