<svg width="26" height="26" viewBox="0 0 26 26" fill="none" xmlns="http://www.w3.org/2000/svg">
<path d="M15.0367 11.0572L7.55447 6.49999C7.22225 6.31222 6.7528 6.76722 6.93336 7.10666L11.375 14.7333L19.0017 19.175C19.0878 19.2062 19.1811 19.212 19.2704 19.1916C19.3597 19.1712 19.4412 19.1255 19.5052 19.0599C19.5692 18.9944 19.613 18.9118 19.6313 18.8221C19.6495 18.7323 19.6416 18.6392 19.6084 18.5539L15.0367 11.0572ZM12.1478 13.9461L14.3145 11.7794L17.6006 17.1528L12.1478 13.9461Z" fill="black"/>
<path d="M13 1.44446C10.7145 1.44446 8.4804 2.12218 6.5801 3.39192C4.67979 4.66166 3.19869 6.46639 2.32408 8.57789C1.44946 10.6894 1.22063 13.0128 1.6665 15.2544C2.11237 17.4959 3.21293 19.555 4.82901 21.171C6.44508 22.7871 8.50408 23.8877 10.7456 24.3335C12.9872 24.7794 15.3106 24.5506 17.4221 23.676C19.5336 22.8013 21.3384 21.3202 22.6081 19.4199C23.8779 17.5196 24.5556 15.2855 24.5556 13C24.5556 9.93529 23.3381 6.99609 21.171 4.829C19.0039 2.66191 16.0647 1.44446 13 1.44446ZM13.7222 23.075V21.3272H12.2778V23.075C9.85546 22.8992 7.57733 21.8574 5.85998 20.1401C4.14262 18.4227 3.1008 16.1446 2.92502 13.7222H4.6728V12.2778H2.92502C3.1008 9.85546 4.14262 7.57732 5.85998 5.85997C7.57733 4.14262 9.85546 3.1008 12.2778 2.92501V4.67279H13.7222V2.92501C16.1446 3.1008 18.4227 4.14262 20.1401 5.85997C21.8574 7.57732 22.8992 9.85546 23.075 12.2778H21.3272V13.7222H23.075C22.8992 16.1446 21.8574 18.4227 20.1401 20.1401C18.4227 21.8574 16.1446 22.8992 13.7222 23.075Z" fill="black"/>
</svg>
