<svg width="23" height="25" viewBox="0 0 23 25" fill="none" xmlns="http://www.w3.org/2000/svg">
<path d="M18.7656 17.1016C17.9028 17.1016 17.1066 17.4043 16.483 17.9099L10.2104 13.3719C10.3154 12.7954 10.3154 12.2046 10.2104 11.6281L16.483 7.09014C17.1066 7.5957 17.9028 7.89844 18.7656 7.89844C20.7697 7.89844 22.3984 6.26973 22.3984 4.26562C22.3984 2.26152 20.7697 0.632812 18.7656 0.632812C16.7615 0.632812 15.1328 2.26152 15.1328 4.26562C15.1328 4.6168 15.1813 4.95283 15.2751 5.27373L9.31728 9.5877C8.4333 8.41611 7.02861 7.65625 5.44531 7.65625C2.76914 7.65625 0.601562 9.82383 0.601562 12.5C0.601562 15.1762 2.76914 17.3438 5.44531 17.3438C7.02861 17.3438 8.4333 16.5839 9.31728 15.4123L15.2751 19.7263C15.1813 20.0472 15.1328 20.3862 15.1328 20.7344C15.1328 22.7385 16.7615 24.3672 18.7656 24.3672C20.7697 24.3672 22.3984 22.7385 22.3984 20.7344C22.3984 18.7303 20.7697 17.1016 18.7656 17.1016ZM18.7656 2.69141C19.6345 2.69141 20.3398 3.39678 20.3398 4.26562C20.3398 5.13447 19.6345 5.83984 18.7656 5.83984C17.8968 5.83984 17.1914 5.13447 17.1914 4.26562C17.1914 3.39678 17.8968 2.69141 18.7656 2.69141ZM5.44531 15.1641C3.97705 15.1641 2.78125 13.9683 2.78125 12.5C2.78125 11.0317 3.97705 9.83594 5.44531 9.83594C6.91357 9.83594 8.10938 11.0317 8.10938 12.5C8.10938 13.9683 6.91357 15.1641 5.44531 15.1641ZM18.7656 22.3086C17.8968 22.3086 17.1914 21.6032 17.1914 20.7344C17.1914 19.8655 17.8968 19.1602 18.7656 19.1602C19.6345 19.1602 20.3398 19.8655 20.3398 20.7344C20.3398 21.6032 19.6345 22.3086 18.7656 22.3086Z" fill="white"/>
</svg>
